<svg width="28" height="28" viewBox="0 0 28 28" fill="none" xmlns="http://www.w3.org/2000/svg">
<path d="M0 0H28V28H0V0Z" fill="white"/>
<path fill-rule="evenodd" clip-rule="evenodd" d="M2.94043 22.4H25.0604L14.0591 11.48L2.94043 22.4Z" fill="#7BB51C"/>
<path fill-rule="evenodd" clip-rule="evenodd" d="M23.6983 20.5951L23.105 19.993L25.6273 17.4754L26.4888 18.349L25.7528 20.9631L27.4223 19.2964L28 19.8826L25.478 22.4002L24.7247 21.6363L25.3733 18.892L23.6984 20.5951H23.6983ZM2.47543 22.1276L4.195 20.4393L3.62223 19.8481L2.54221 20.909L0.639633 18.9456L0 19.5737L2.47552 22.1277L2.47543 22.1276ZM4.57238 20.0547L6.33425 18.3241L5.85039 17.8253L4.73168 18.9237L4.19449 18.3694L5.09099 17.4891L4.58466 16.9671L3.68817 17.847L3.22794 17.3722L4.30989 16.3095L3.82636 15.8108L2.07004 17.5356L4.57247 20.0548L4.57238 20.0547ZM21.9137 18.7839L24.4359 16.2662L25.0703 16.9098L22.5481 19.4274L21.9137 18.7839ZM22.2645 14.0624L22.9144 14.7221L21.0059 16.6271L22.0735 17.7102L21.4598 18.3233L19.7423 16.5804L22.2645 14.0625V14.0624ZM8.85519 15.8669C8.85519 15.8669 7.27314 15.3235 7.19795 15.3368C7.17356 15.3407 7.53774 14.3653 6.71955 13.933C6.71955 13.933 6.11238 13.6022 5.50471 14.1579L4.20963 15.4425L6.70634 17.9732L7.36692 17.3246L6.01591 15.9311L8.19983 16.5107L8.85527 15.867L8.85519 15.8669ZM21.1248 12.9057L19.5929 11.351L17.0655 13.8637L17.7154 14.5231L19.0933 13.1475L18.5974 15.4181L19.2627 16.0934C19.2627 16.0934 19.7871 14.4691 19.8032 14.4015C19.8032 14.4015 20.3715 14.7166 20.9951 14.177C20.9951 14.177 21.5932 13.5904 21.1248 12.9056V12.9057ZM6.40482 15.5194C6.03778 15.8792 5.98824 15.9076 5.98824 15.9076C5.98824 15.9076 5.41278 15.314 5.39243 15.2929C5.37207 15.2719 5.80396 14.8993 5.872 14.8324C5.90085 14.804 6.16974 14.6274 6.39237 14.8569C6.39237 14.8569 6.77186 15.1589 6.40499 15.5194H6.40482ZM10.3392 11.8508C9.62863 11.1177 8.39596 11.2054 7.80234 11.7884C7.20854 12.3714 6.90551 13.534 7.74405 14.3991C8.66511 15.3492 9.76085 15.0041 10.3546 14.4214C11.2301 13.5617 10.9185 12.4483 10.3392 11.8507V11.8508ZM9.81695 13.9194C9.42392 14.3053 8.94341 14.2006 8.39437 13.6341C7.93296 13.1582 7.96071 12.68 8.29621 12.3505C8.52692 12.1239 8.99548 11.9212 9.55294 12.4964C10.189 13.1526 10.21 13.5334 9.81695 13.9194ZM20.1893 13.6421C20.1893 13.6421 19.8674 13.8597 19.5836 13.5719L19.1404 13.1008C19.1404 13.1008 19.6759 12.5662 19.7434 12.4986C19.7434 12.4986 20.156 12.9175 20.2077 12.9697C20.2591 13.022 20.5845 13.2683 20.1893 13.6421ZM16.4982 13.2879L14.7496 11.5136L17.2718 8.99588L19.0254 10.7755L18.5159 11.2842L17.4172 10.1694L17.0063 10.5794L17.8729 11.4588L17.3423 11.9883L16.4811 11.1142L15.9298 11.6644L17.0182 12.7688L16.4983 13.288L16.4982 13.2879ZM12.3209 12.4597L12.9709 11.8211L11.993 10.8123L11.4077 8.36114L10.6626 9.09297L11.0502 10.4836L9.74058 9.99819L9.03795 10.688L11.2707 11.4096L12.3209 12.4596V12.4597ZM12.1192 8.84418L11.5415 8.25794L14.0635 5.74023L14.8889 6.57781L13.9803 8.37764L15.8327 7.53559L16.6269 8.34167L14.1049 10.8594L13.4961 10.2417L14.8274 8.91275L13.0062 9.74439L12.6297 9.36226L13.4762 7.53102L12.1191 8.84418H12.1192Z" fill="black"/>
</svg>
