<svg width="43" height="46" viewBox="0 0 43 46" fill="none" xmlns="http://www.w3.org/2000/svg">
<path fill-rule="evenodd" clip-rule="evenodd" d="M33.6 0.799766C33.2351 0.314121 32.6542 0 32 0C31.3458 0 30.7649 0.314141 30.4 0.799815C30.2631 0.886291 30.1315 0.984903 30.0069 1.09566L21.6713 8.50512C20.8457 9.23895 20.7714 10.5031 21.5052 11.3287C22.239 12.1542 23.5032 12.2286 24.3287 11.4948L30 6.45364V18.0561H17.0625C15.4056 18.0561 14.0625 19.3992 14.0625 21.0561V29.8318H3C1.34314 29.8318 0 31.1749 0 32.8318V44C0 45.1046 0.89543 46 2 46C3.10457 46 4 45.1046 4 44V33.8318H15.0625C16.7194 33.8318 18.0625 32.4886 18.0625 30.8318V22.0561H31C32.6569 22.0561 34 20.7129 34 19.0561V6.4536L39.6713 11.4948C40.4969 12.2286 41.761 12.1542 42.4948 11.3287C43.2287 10.5031 43.1543 9.23895 42.3288 8.50512L33.9931 1.09566C33.8685 0.984882 33.7369 0.886254 33.6 0.799766Z" fill="black"/>
</svg>
