<svg width="46" height="46" viewBox="0 0 46 46" fill="none" xmlns="http://www.w3.org/2000/svg">
<path fill-rule="evenodd" clip-rule="evenodd" d="M1.09566 9.00693C0.984881 9.13156 0.886247 9.26311 0.799759 9.40008C0.314117 9.76497 0 10.3458 0 11C0 11.6543 0.31414 12.2352 0.799812 12.6C0.886287 12.737 0.984904 12.8685 1.09566 12.9931L8.50512 21.3287C9.23895 22.1543 10.5031 22.2287 11.3287 21.4948C12.1542 20.761 12.2286 19.4969 11.4948 18.6713L6.45364 13H44C45.1046 13 46 12.1046 46 11C46 9.89547 45.1046 9.00004 44 9.00004H6.4536L11.4948 3.32875C12.2286 2.50318 12.1542 1.23904 11.3287 0.505204C10.5031 -0.228634 9.23895 -0.154272 8.50512 0.671294L1.09566 9.00693ZM45.2002 33.4C45.1137 33.2631 45.0151 33.1316 44.9043 33.007L37.4949 24.6713C36.761 23.8458 35.4969 23.7714 34.6713 24.5052C33.8458 25.2391 33.7714 26.5032 34.5052 27.3288L39.5464 33L2 33C0.895432 33 0 33.8955 0 35C0 36.1046 0.895432 37 2 37L39.5464 37L34.5052 42.6713C33.7714 43.4969 33.8458 44.761 34.6713 45.4949C35.4969 46.2287 36.761 46.1544 37.4949 45.3288L44.9043 36.9932C45.0151 36.8685 45.1138 36.737 45.2002 36.6C45.6859 36.2351 46 35.6543 46 35C46 34.3458 45.6859 33.7649 45.2002 33.4Z" fill="black"/>
</svg>
