<svg width="42" height="42" viewBox="0 0 42 42" fill="none" xmlns="http://www.w3.org/2000/svg">
<path fill-rule="evenodd" clip-rule="evenodd" d="M41.4142 0.585786C42.1953 1.36683 42.1953 2.63317 41.4142 3.41421L3.41421 41.4142C2.63317 42.1953 1.36683 42.1953 0.585786 41.4142C-0.195262 40.6332 -0.195262 39.3668 0.585786 38.5858L38.5858 0.585786C39.3668 -0.195262 40.6332 -0.195262 41.4142 0.585786ZM9.5 14C11.9853 14 14 11.9853 14 9.5C14 7.01472 11.9853 5 9.5 5C7.01472 5 5 7.01472 5 9.5C5 11.9853 7.01472 14 9.5 14ZM9.5 18C14.1944 18 18 14.1944 18 9.5C18 4.80558 14.1944 1 9.5 1C4.80558 1 1 4.80558 1 9.5C1 14.1944 4.80558 18 9.5 18ZM37 32.5C37 34.9853 34.9853 37 32.5 37C30.0147 37 28 34.9853 28 32.5C28 30.0147 30.0147 28 32.5 28C34.9853 28 37 30.0147 37 32.5ZM41 32.5C41 37.1944 37.1944 41 32.5 41C27.8056 41 24 37.1944 24 32.5C24 27.8056 27.8056 24 32.5 24C37.1944 24 41 27.8056 41 32.5Z" fill="black"/>
</svg>
