<svg width="35" height="47" viewBox="0 0 35 47" fill="none" xmlns="http://www.w3.org/2000/svg">
<path fill-rule="evenodd" clip-rule="evenodd" d="M11.75 21.5V4H22.25C27.0825 4 31 7.91751 31 12.75C31 17.5825 27.0825 21.5 22.25 21.5H11.75ZM22.25 25.5H11.75V31H23C24.1046 31 25 31.8954 25 33C25 34.1046 24.1046 35 23 35H11.75V45C11.75 46.1046 10.8546 47 9.75 47C8.64543 47 7.75 46.1046 7.75 45V35H2C0.89543 35 0 34.1046 0 33C0 31.8954 0.89543 31 2 31H7.75V25.5H2C0.89543 25.5 0 24.6046 0 23.5C0 22.3954 0.89543 21.5 2 21.5H7.75V3C7.75 1.34315 9.09314 0 10.75 0H22.25C29.2916 0 35 5.70837 35 12.75C35 19.7916 29.2916 25.5 22.25 25.5Z" fill="black"/>
</svg>
